Coordinates
version=1
nRows=43
nColumns=12
inDegrees=yes

Units are S.I. units (second, meters, Newtons, ...)
Angles are in degrees

endheader
time	SC_y	SC_z	SC_x	AC_y	AC_z	AC_x	GH_y	GH_z	GH_yy	EL_x	PS_y
       0.0              -34.79          3.509          9.676          48.55          5.563          13.11         -96.66          59.29          57.58          67.26          15.26
   0.02941              -34.79          3.509          9.677          48.55          5.563           13.1         -96.66          59.28          57.57          67.25          15.27
   0.05882              -34.78          3.509          9.677          48.55          5.563           13.1         -96.65          59.28          57.55          67.24          15.27
   0.08824              -34.78          3.509          9.678          48.55          5.562           13.1         -96.65          59.27          57.54          67.23          15.28
    0.1176              -34.78           3.51          9.678          48.55          5.562           13.1         -96.64          59.26          57.52          67.22          15.28
    0.1471              -34.77           3.51          9.679          48.55          5.562          13.09         -96.64          59.26           57.5          67.21          15.29
    0.1765              -34.77           3.51          9.679          48.55          5.562          13.09         -96.64          59.25          57.48           67.2          15.29
    0.2059              -34.77          3.511           9.68          48.54          5.561          13.08         -96.63          59.24          57.46          67.19           15.3
    0.2353              -34.76          3.511          9.681          48.54          5.561          13.08         -96.63          59.23          57.44          67.17           15.3
    0.2647              -34.76          3.512          9.682          48.54          5.561          13.08         -96.62          59.22          57.42          67.16          15.31
    0.2941              -34.75          3.512          9.682          48.54           5.56          13.07         -96.61          59.21          57.39          67.14          15.32
    0.3235              -34.75          3.512          9.683          48.54           5.56          13.07         -96.61           59.2          57.37          67.13          15.33
    0.3529              -34.74          3.513          9.684          48.54          5.559          13.06          -96.6          59.19          57.34          67.11          15.33
    0.3824              -34.74          3.514          9.685          48.53          5.559          13.06         -96.59          59.17          57.31          67.09          15.34
    0.4118              -34.73          3.514          9.686          48.53          5.558          13.05         -96.58          59.16          57.27          67.07          15.35
    0.4412              -34.73          3.515          9.687          48.53          5.558          13.04         -96.57          59.15          57.24          67.05          15.36
    0.4706              -34.72          3.516          9.689          48.53          5.557          13.04         -96.56          59.13           57.2          67.03          15.37
       0.5              -34.71          3.516           9.69          48.52          5.556          13.03         -96.55          59.11          57.15           67.0          15.39
    0.5294               -34.7          3.517          9.692          48.52          5.556          13.02         -96.54          59.09           57.1          66.97           15.4
    0.5588              -34.69          3.518          9.693          48.52          5.555          13.01         -96.53          59.07          57.05          66.94          15.42
    0.5882              -34.68          3.519          9.695          48.51          5.554           13.0         -96.51          59.05          56.99          66.91          15.43
    0.6177              -34.67           3.52          9.697          48.51          5.553          12.99          -96.5          59.02          56.93          66.87          15.45
    0.6471              -34.66          3.521          9.699          48.51          5.552          12.97         -96.48          58.99          56.86          66.83          15.47
    0.6765              -34.64          3.523          9.702           48.5          5.551          12.96         -96.46          58.96          56.78          66.78          15.49
    0.7059              -34.63          3.524          9.705           48.5          5.549          12.94         -96.44          58.93           56.7          66.73          15.52
    0.7353              -34.61          3.526          9.708          48.49          5.548          12.93         -96.42          58.89           56.6          66.67          15.55
    0.7647              -34.59          3.528          9.711          48.48          5.546          12.91         -96.39          58.84           56.5          66.61          15.58
    0.7941              -34.57           3.53          9.715          48.48          5.544          12.89         -96.36          58.79          56.38          66.54          15.61
    0.8235              -34.55          3.533           9.72          48.47          5.542          12.86         -96.33          58.74          56.24          66.46          15.65
     0.853              -34.52          3.535          9.725          48.46           5.54          12.83         -96.29          58.67          56.08          66.36           15.7
    0.8824              -34.48          3.538           9.73          48.45          5.537           12.8         -96.25           58.6          55.91          66.26          15.75
    0.9118              -34.45          3.542          9.737          48.43          5.534          12.76          -96.2          58.52          55.71          66.14          15.81
    0.9412              -34.41          3.546          9.744          48.42           5.53          12.72         -96.14          58.42          55.47           66.0          15.87
    0.9706              -34.36          3.551          9.753           48.4          5.526          12.67         -96.07          58.31           55.2          65.84          15.95
       1.0               -34.3          3.557          9.764          48.38          5.521          12.61         -95.99          58.18          54.88          65.65          16.04
     1.029              -34.23          3.563          9.776          48.36          5.515          12.54          -95.9          58.02          54.51          65.42          16.15
     1.059              -34.15          3.571           9.79          48.33          5.508          12.46         -95.79          57.84          54.06          65.16          16.28
     1.088              -34.05          3.581          9.807           48.3          5.499          12.36         -95.66          57.62          53.53          64.84          16.43
     1.118              -33.94          3.592          9.828          48.25          5.489          12.24          -95.5          57.36          52.88          64.46          16.62
     1.147              -33.79          3.606          9.854           48.2          5.477           12.1         -95.31          57.03          52.09          63.99          16.85
     1.176              -33.62          3.624          9.885          48.14          5.461          11.92         -95.07          56.63          51.12          63.41          17.13
     1.206               -33.4          3.645          9.924          48.07          5.442           11.7         -94.77          56.13           49.9          62.68          17.48
     1.235              -33.12          3.673          9.974          47.97          5.418          11.42         -94.39           55.5          48.37          61.77          17.92
